{"title":"The.Thin.Red.Line.1998.1080p.BluRay.x264.DTS-FGT","uid":11789197,"size":21218925411,"categoryP":"video","categoryS":"hd___movies","magnet":"?xt=urn:btih:b275e8caff9a65d3bf5d500432c2eb3773fe867b&amp;dn=The.Thin.Red.Line.1998.1080p.BluRay.x264.DTS-FGT&amp;tr=udp%3A%2F%2Ftracker.openbittorrent.com%3A80&amp;tr=udp%3A%2F%2Fopen.demonii.com%3A1337&amp;tr=udp%3A%2F%2Ftracker.coppersurfer.tk%3A6969&amp;tr=udp%3A%2F%2Fexodus.desync.com%3A6969","seeders":4,"leechers":7,"uploader":"makintos13","files":2,"time":1427866154,"description":"screen:\n &lt;a href=&quot;\nhttp://imgmak.com/image/KM&quot; rel=&quot;nofollow&quot; target=&quot;_NEW&quot;&gt;\nhttp://imgmak.com/image/KM&lt;/a&gt;\n &lt;a href=&quot;\nhttp://imgmak.com/image/KO&quot; rel=&quot;nofollow&quot; target=&quot;_NEW&quot;&gt;\nhttp://imgmak.com/image/KO&lt;/a&gt;\n &lt;a href=&quot;\nhttp://imgmak.com/image/KP&quot; rel=&quot;nofollow&quot; target=&quot;_NEW&quot;&gt;\nhttp://imgmak.com/image/KP&lt;/a&gt;\n\n\n\nVideo\nID                                       : 1\nFormat                                   : AVC\nFormat/Info                              : Advanced Video Codec\nFormat profile                           : &lt;a class=&quot;__cf_email__&quot; href=&quot;/cdn-cgi/l/email-protection&quot; data-cfemail=&quot;4800212f2008047c6679&quot;&gt;[email&amp;#160;protected]&lt;/a&gt;&lt;script cf-hash='f9e31' type=&quot;text/javascript&quot;&gt;\n/* &lt;![CDATA[ */!function(){try{var t=&quot;currentScript&quot;in document?document.currentScript:function(){for(var t=document.getElementsByTagName(&quot;script&quot;),e=t.length;e--;)if(t[e].getAttribute(&quot;cf-hash&quot;))return t[e]}();if(t&amp;&amp;t.previousSibling){var e,r,n,i,c=t.previousSibling,a=c.getAttribute(&quot;data-cfemail&quot;);if(a){for(e=&quot;&quot;,r=parseInt(a.substr(0,2),16),n=2;a.length-n;n+=2)i=parseInt(a.substr(n,2),16)^r,e+=String.fromCharCode(i);e=document.createTextNode(e),c.parentNode.replaceChild(e,c)}}}catch(u){}}();/* ]]&gt; */&lt;/script&gt;\nFormat settings, CABAC                   : Yes\nFormat settings, ReFrames                : 5 frames\nCodec ID                                 : V_MPEG4/ISO/AVC\nDuration                                 : 2h 50mn\nBit rate                                 : 15.5 Mbps\nWidth                                    : 1 920 pixels\nHeight                                   : 820 pixels\nDisplay aspect ratio                     : 2.35:1\nFrame rate mode                          : Constant\nFrame rate                               : 23.976 fps\nColor space                              : YUV\nChroma subsampling                       : 4:2:0\nBit depth                                : 8 bits\nScan type                                : Progressive\nBits/(Pixel*Frame)                       : 0.410\nStream size                              : 18.5 GiB (93%)\nWriting library                          : x264 core 129 r2245kMod bc13772\nEncoding settings                        : cabac=1 / ref=5 / deblock=1:-3:-3 / analyse=0x3:0x113 / me=umh / subme=11 / psy=1 / fade_compensate=0.00 / psy_rd=1.00:0.02 / mixed_ref=1 / me_range=32 / chroma_me=1 / trellis=2 / 8x8dct=1 / cqm=0 / deadzone=21,11 / fast_pskip=1 / chroma_qp_offset=-3 / threads=6 / lookahead_threads=1 / sliced_threads=0 / nr=0 / decimate=1 / interlaced=0 / bluray_compat=0 / constrained_intra=0 / bframes=9 / b_pyramid=2 / b_adapt=2 / b_bias=0 / direct=3 / weightb=1 / open_gop=0 / weightp=2 / keyint=250 / keyint_min=23 / scenecut=40 / intra_refresh=0 / rc_lookahead=40 / rc=crf / mbtree=0 / crf=17.3000 / qcomp=0.75 / qpmin=0 / qpmax=69 / qpstep=4 / vbv_maxrate=50000 / vbv_bufsize=50000 / crf_max=0.0 / nal_hrd=none / ip_ratio=1.40 / pb_ratio=1.30 / aq=1:0.80\nLanguage                                 : English\nDefault                                  : Yes\nForced                                   : No\nMatrix coefficients                      : BT.709\nColor range                              : Limited\n\nAudio\nID                                       : 2\nFormat                                   : DTS\nFormat/Info                              : Digital Theater Systems\nMode                                     : 16\nFormat settings, Endianness              : Big\nCodec ID                                 : A_DTS\nDuration                                 : 2h 50mn\nBit rate mode                            : Constant\nBit rate                                 : 755 Kbps\nChannel(s)                               : 6 channels\nChannel positions                        : Front: L C R, Side: L R, LFE\nSampling rate                            : 48.0 KHz\nBit depth                                : 24 bits\nCompression mode                         : Lossy\nStream size                              : 922 MiB (5%)\nLanguage                                 : English\nDefault                                  : Yes\nForced                                   : No\n\nText #1\nID                                       : 3\nFormat                                   : UTF-8\nCodec ID                                 : S_TEXT/UTF8\nCodec ID/Info                            : UTF-8 Plain Text\nLanguage                                 : English\nDefault                                  : No\nForced                                   : No\n\nText #2\nID                                       : 4\nFormat                                   : UTF-8\nCodec ID                                 : S_TEXT/UTF8\nCodec ID/Info                            : UTF-8 Plain Text\nTitle                                    : SDH\nLanguage                                 : English\nDefault                                  : No\nForced                                   : No\n\nMenu\n00:00:00.000                             : en:Main Titles: Melanesia\n00:10:49.440                             : en:The Brig\n00:15:54.203                             : en:The Closer to Caesar\n00:20:19.426                             : en:Charlie Company\n00:25:58.431                             : en:Guadalcanal\n00:29:32.813                             : en:Witt with the Wounded\n00:38:02.906                             : en:Hill 210\n00:41:25.733                             : enawn\n00:51:15.614                             : en:Staros' Attack\n00:59:58.136                             : en:Keck's Mistake\n01:05:15.912                             : enroperty (Tella's Death)\n01:11:16.772                             : en:Refusing an Order\n01:20:15.060                             : en:Tall Visits the Line\n01:26:40.445                             : en:The Unguarded Ledge\n01:39:53.154                             : en:Welsh and Witt\n01:44:51.410                             : en:The Bunker\n01:55:22.249                             : en:Gaff and Tall\n02:01:02.630                             : en:The Japanese Bivouac\n02:07:31.018                             : en:The Mop-Up\n02:14:49.915                             : en:Nature's Cruel\n02:23:06.286                             : en:Staros Leaves\n02:30:24.265                             : en:The Airfield\n02:37:24.435                             : en:A Letter","torrent":{"xt":"urn:btih:b275e8caff9a65d3bf5d500432c2eb3773fe867b","amp;dn":"The.Thin.Red.Line.1998.1080p.BluRay.x264.DTS-FGT","amp;tr":["udp%3A%2F%2Ftracker.openbittorrent.com%3A80","udp%3A%2F%2Fopen.demonii.com%3A1337","udp%3A%2F%2Ftracker.coppersurfer.tk%3A6969","udp%3A%2F%2Fexodus.desync.com%3A6969"],"infoHash":"b275e8caff9a65d3bf5d500432c2eb3773fe867b","infoHashBuffer":{"type":"Buffer","data":[178,117,232,202,255,154,101,211,191,93,80,4,50,194,235,55,115,254,134,123]},"announce":[],"urlList":[]}}